# xmcd CD database file
#
# Track frame offsets:
#	150
#	13136
#	24182
#	37334
#	50663
#	64424
#	79011
#	94608
#	110151
#	122917
#	135389
#	149482
#	163649
#	176666
#
# Disc length: 2504 seconds
#
# Revision: 0
# Processed by: cddbd v1.5.2PL0 Copyright (c) Steve Scherf et al.
# Submitted via: CDex 1.70beta2
#
DISCID=c809c60e
DTITLE=Wes Montgomery - Complete Recordings (with Lionel Hampton) CD2
DYEAR=2001
DGENRE=Jazz
TTITLE0=Rap Mop
TTITLE1=For You My Love
TTITLE2=Sky Blue
TTITLE3=I've Been A Fool
TTITLE4=How You Sound
TTITLE5=I Almost Lost My Mind
TTITLE6=Everybody's Somebody's Fool
TTITLE7=I'll Never Be Free
TTITLE8=Sad Feelin'
TTITLE9=Hamp's Gumbo
TTITLE10=Pleas Give Me a Chance
TTITLE11=I Wish I Knew
TTITLE12=Where Or When
TTITLE13=There Will Never Be Another You
EXTD=YEAR: 2001
EXTT0=
EXTT1=
EXTT2=
EXTT3=
EXTT4=
EXTT5=
EXTT6=
EXTT7=
EXTT8=
EXTT9=
EXTT10=
EXTT11=
EXTT12=
EXTT13=
PLAYORDER=
